<?xml version="1.0" encoding="utf-8"?>
<!-- Generator: Adobe Illustrator 21.0.0, SVG Export Plug-In . SVG Version: 6.00 Build 0)  -->
<!DOCTYPE svg PUBLIC "-//W3C//DTD SVG 1.1//EN" "http://www.w3.org/Graphics/SVG/1.1/DTD/svg11.dtd">
<svg version="1.1" id="Laag_1" xmlns="http://www.w3.org/2000/svg" xmlns:xlink="http://www.w3.org/1999/xlink" x="0px" y="0px"
	 width="1275px" height="850px" viewBox="0 0 1275 850" style="enable-background:new 0 0 1275 850;" xml:space="preserve">
<style type="text/css">
	.st0{fill:none;}
	.st1{fill:#E74536;}
	.st2{fill:#2175D9;}
	.st3{fill:#0F1941;}
</style>
<rect class="st0" width="1275" height="850"/>
<path class="st1" d="M1182.6,277.2h-30.1c-7.4,0-14-4.4-16.9-11.1c-1.6-5.1-3.4-10.1-5.4-15.1c-0.3-0.7-0.6-1.5-0.9-2.2
	c-0.1-0.2-0.2-0.4-0.2-0.5c-2.6-6.3-5.4-12.4-8.5-18.3c-2.6-6.8-1-14.5,4.2-19.7l21.3-21.3c7.2-7.2,7.2-18.9,0-26.1l-52.3-52.3
	c-7.2-7.2-18.9-7.2-26.1,0l-21.3,21.3c-5.2,5.2-13,6.8-19.8,4.1c-4.7-2.5-9.6-4.8-14.5-6.9c-0.7-0.3-1.5-0.6-2.2-0.9
	c-0.2-0.1-0.4-0.2-0.6-0.2c-6.2-2.6-12.6-4.9-19-7c-6.6-2.9-11-9.5-11-16.9V73.9c0-10.2-8.3-18.5-18.5-18.5H887
	c-10.2,0-18.5,8.3-18.5,18.5V104c0,7.4-4.4,14-11.1,16.9c-5.1,1.6-10.1,3.4-15.1,5.4c-0.7,0.3-1.5,0.6-2.2,0.9
	c-0.2,0.1-0.4,0.2-0.5,0.2c-6.3,2.6-12.4,5.4-18.3,8.5c-6.8,2.6-14.5,1-19.7-4.2l-21.3-21.3c-7.2-7.2-18.9-7.2-26.1,0l-52.3,52.3
	c-7.2,7.2-7.2,18.9,0,26.1l21.3,21.3c5.2,5.2,6.8,13,4.1,19.8c-2.5,4.7-4.8,9.6-6.9,14.5c-0.3,0.7-0.6,1.5-0.9,2.2
	c-0.1,0.2-0.2,0.4-0.2,0.6c-2.6,6.2-4.9,12.6-7,19c-2.9,6.6-9.5,11-16.9,11h-30.1c-10.2,0-18.5,8.3-18.5,18.5v73.9
	c0,10.2,8.3,18.5,18.5,18.5h30.1c7.4,0,14,4.4,16.9,11.1c1.6,5.1,3.4,10.1,5.4,15.1c0.3,0.7,0.6,1.5,0.9,2.2
	c0.1,0.2,0.2,0.4,0.2,0.5c2.6,6.3,5.4,12.4,8.5,18.3c2.6,6.8,1,14.5-4.2,19.7l-21.3,21.3c-7.2,7.2-7.2,18.9,0,26.1l52.3,52.3
	c7.2,7.2,18.9,7.2,26.1,0l21.3-21.3c5.2-5.2,13-6.8,19.8-4.1c4.7,2.5,9.6,4.8,14.5,6.9c0.7,0.3,1.5,0.6,2.2,0.9
	c0.2,0.1,0.4,0.2,0.6,0.2c6.2,2.6,12.6,4.9,19,7c6.6,2.9,11,9.5,11,16.9v30.1c0,10.2,8.3,18.5,18.5,18.5h73.9
	c10.2,0,18.5-8.3,18.5-18.5v-30.1c0-7.4,4.4-14,11.1-16.9c5.1-1.6,10.1-3.4,15.1-5.4c0.7-0.3,1.5-0.6,2.2-0.9
	c0.2-0.1,0.4-0.2,0.6-0.2c6.3-2.6,12.4-5.4,18.3-8.5c6.8-2.6,14.5-1,19.7,4.2l21.3,21.3c7.2,7.2,18.9,7.2,26.1,0l52.3-52.3
	c7.2-7.2,7.2-18.9,0-26.1l-21.3-21.3c-5.2-5.2-6.8-13-4.1-19.8c2.5-4.7,4.8-9.6,6.9-14.5c0.3-0.7,0.6-1.5,0.9-2.2
	c0.1-0.2,0.2-0.4,0.2-0.6c2.6-6.2,4.9-12.6,7-19c2.9-6.6,9.5-11,16.9-11h30.1c10.2,0,18.5-8.3,18.5-18.5v-73.9
	C1201.1,285.4,1192.8,277.2,1182.6,277.2z M923.9,480.4c-81.6,0-147.8-66.2-147.8-147.8s66.2-147.8,147.8-147.8
	s147.8,66.2,147.8,147.8S1005.6,480.4,923.9,480.4z"/>
<path class="st2" d="M389.5,475.8l-18.3-6.6c-4.5-1.6-7.5-5.8-7.8-10.5c0.1-3.4,0.2-6.9,0.1-10.4c0-0.5,0-1,0-1.5c0-0.1,0-0.3,0-0.4
	c-0.2-4.4-0.6-8.7-1.1-13c-0.1-4.7,2.5-9,6.9-11l17.6-8.2c6-2.8,8.5-9.9,5.7-15.9l-20.3-43.2c-2.8-6-9.9-8.5-15.9-5.7l-17.6,8.2
	c-4.3,2-9.4,1.3-12.9-1.8c-2.3-2.5-4.8-5-7.3-7.4c-0.4-0.4-0.7-0.7-1.1-1.1c-0.1-0.1-0.2-0.2-0.3-0.3c-3.2-3-6.6-5.8-10-8.4
	c-3.4-3.2-4.6-8.2-3-12.7l6.6-18.3c2.2-6.2-1-13-7.2-15.3l-44.9-16.2c-6.2-2.2-13,1-15.3,7.2l-6.6,18.3c-1.6,4.5-5.8,7.5-10.5,7.8
	c-3.4-0.1-6.9-0.2-10.4-0.1c-0.5,0-1,0-1.5,0c-0.1,0-0.3,0-0.4,0c-4.4,0.2-8.7,0.6-13,1.1c-4.7,0.1-9-2.5-11-6.9l-8.2-17.6
	c-2.8-6-9.9-8.5-15.9-5.7l-43.2,20.3c-6,2.8-8.5,9.9-5.7,15.9l8.2,17.6c2,4.3,1.3,9.4-1.8,12.9c-2.5,2.3-5,4.8-7.4,7.3
	c-0.4,0.4-0.7,0.7-1.1,1.1c-0.1,0.1-0.2,0.2-0.3,0.3c-3,3.2-5.8,6.6-8.4,10c-3.2,3.4-8.2,4.6-12.7,3l-18.3-6.6
	c-6.2-2.2-13,1-15.3,7.2l-16.2,44.9c-2.2,6.2,1,13,7.2,15.3l18.3,6.6c4.5,1.6,7.5,5.8,7.8,10.5c-0.1,3.4-0.2,6.9-0.1,10.4
	c0,0.5,0,1,0,1.5c0,0.1,0,0.3,0,0.4c0.2,4.4,0.6,8.7,1.1,13c0.1,4.7-2.5,9-6.9,11l-17.6,8.2c-6,2.8-8.5,9.9-5.7,15.9l20.3,43.2
	c2.8,6,9.9,8.5,15.9,5.7l17.6-8.2c4.3-2,9.4-1.3,12.9,1.8c2.3,2.5,4.8,5,7.3,7.4c0.4,0.4,0.7,0.7,1.1,1.1c0.1,0.1,0.2,0.2,0.3,0.3
	c3.2,3,6.6,5.8,10,8.4c3.4,3.2,4.6,8.2,3,12.7l-6.6,18.3c-2.2,6.2,1,13,7.2,15.3l44.9,16.2c6.2,2.2,13-1,15.3-7.2l6.6-18.3
	c1.6-4.5,5.8-7.5,10.5-7.8c3.4,0.1,6.9,0.2,10.4,0.1c0.5,0,1,0,1.5,0c0.1,0,0.3,0,0.4,0c4.4-0.2,8.7-0.6,13-1.1
	c4.7-0.1,9,2.5,11,6.9l8.2,17.6c2.8,6,9.9,8.5,15.9,5.7l43.2-20.3c6-2.8,8.5-9.9,5.7-15.9l-8.2-17.6c-2-4.3-1.3-9.4,1.8-12.9
	c2.5-2.3,5-4.8,7.4-7.3c0.4-0.4,0.7-0.7,1.1-1.1c0.1-0.1,0.2-0.2,0.3-0.3c3-3.2,5.8-6.6,8.4-10c3.2-3.4,8.2-4.6,12.7-3l18.3,6.6
	c6.2,2.2,13-1,15.3-7.2l16.2-44.9C398.9,484.9,395.6,478.1,389.5,475.8z M309.9,485.1c-17.9,49.6-72.7,75.2-122.3,57.3
	s-75.2-72.7-57.3-122.3c17.9-49.6,72.7-75.2,122.3-57.3C302.2,380.8,327.9,435.6,309.9,485.1z"/>
<path class="st3" d="M409.8,850c4.8-91,80.1-163.2,172.2-163.2S749.5,759,754.3,850h151.2v-33.9c0-11.9-9.7-21.6-21.6-21.6h-35.1
	c-8.6,0-16.4-5.1-19.7-12.9c-1.9-5.9-4-11.8-6.3-17.6c-0.3-0.9-0.7-1.7-1-2.6c-0.1-0.2-0.2-0.4-0.3-0.6c-3-7.3-6.3-14.5-9.9-21.4
	c-3-7.9-1.2-16.9,4.9-23l24.8-24.8c8.4-8.4,8.4-22.1,0-30.5l-61-61c-8.4-8.4-22.1-8.4-30.5,0l-24.8,24.8c-6.1,6.1-15.2,7.9-23.1,4.8
	c-5.5-2.9-11.2-5.6-16.9-8c-0.9-0.4-1.7-0.7-2.6-1.1c-0.2-0.1-0.4-0.2-0.7-0.3c-7.3-3-14.7-5.8-22.2-8.1
	c-7.7-3.4-12.8-11.1-12.8-19.7v-35.1c0-11.9-9.7-21.6-21.6-21.6h-86.2c-11.9,0-21.6,9.7-21.6,21.6v35.1c0,8.6-5.1,16.4-12.9,19.7
	c-5.9,1.9-11.8,4-17.6,6.3c-0.9,0.3-1.7,0.7-2.6,1c-0.2,0.1-0.4,0.2-0.6,0.3c-7.3,3-14.5,6.3-21.4,9.9c-7.9,3-16.9,1.2-23-4.9
	l-24.8-24.8c-8.4-8.4-22.1-8.4-30.5,0l-61,61c-8.4,8.4-8.4,22.1,0,30.5l24.8,24.8c6.1,6.1,7.9,15.2,4.8,23.1
	c-2.9,5.5-5.6,11.2-8,16.9c-0.4,0.9-0.7,1.7-1.1,2.6c-0.1,0.2-0.2,0.4-0.3,0.7c-3,7.3-5.8,14.7-8.1,22.2
	c-3.4,7.7-11.1,12.8-19.7,12.8h-35.1c-11.9,0-21.6,9.7-21.6,21.6V850H409.8z"/>
<g>
</g>
<g>
</g>
<g>
</g>
<g>
</g>
<g>
</g>
<g>
</g>
<g>
</g>
<g>
</g>
<g>
</g>
<g>
</g>
<g>
</g>
<g>
</g>
<g>
</g>
<g>
</g>
<g>
</g>
</svg>
